<mxfile host="app.diagrams.net" modified="2023-09-08T08:50:46.791Z" agent="Mozilla/5.0 (Windows NT 10.0; Win64; x64) AppleWebKit/537.36 (KHTML, like Gecko) Chrome/116.0.0.0 Safari/537.36" etag="h3pcGxfuZs48WEoyir10" version="21.7.2" type="github">
  <diagram name="第 1 页" id="OE8Y_jW8mMldFSp65CrJ">
    <mxGraphModel dx="1434" dy="758" grid="1" gridSize="10" guides="1" tooltips="1" connect="1" arrows="1" fold="1" page="1" pageScale="1" pageWidth="827" pageHeight="1169" math="0" shadow="0">
      <root>
        <mxCell id="0" />
        <mxCell id="1" parent="0" />
        <mxCell id="UrBGJTlEj64AcYCvytFf-1" value="&lt;b style=&quot;font-size: 18px;&quot;&gt;数据库，主从架构，分库，从库有一个历史库。读的情况：近一年的数据读取从库（比如2023年），那么之前的数据都是读历史库。&lt;br&gt;理论上来说3个库都可以在不同的机器上。&lt;br&gt;分库、分表分别解决的什么问题？单服务器IO过大所以分机器？&lt;br&gt;分表是解决数据量大的问题（可能请求量没这么大，但是就是数据多）？&lt;br&gt;那分库呢（比如微服务情况下，有些服务的请求量特别大，就需要分库？）？&lt;/b&gt;" style="rounded=1;whiteSpace=wrap;html=1;align=left;verticalAlign=top;" vertex="1" parent="1">
          <mxGeometry x="350" y="360" width="790" height="210" as="geometry" />
        </mxCell>
      </root>
    </mxGraphModel>
  </diagram>
</mxfile>
